<svg width="960" height="969" viewBox="0 0 960 969" fill="none" xmlns="http://www.w3.org/2000/svg">
<path d="M0 770.097L143.21 881.251L531.496 903.056L696.877 968.472H0V770.097Z" fill="#7FA9A0"/>
<path d="M158.861 688L239.754 774.689L398.544 819.629L578.306 813.513L960 891.693V967.745H763.46L554.937 874.674L363.191 867.76L203.802 803.408L158.861 688Z" fill="#C2DAD2"/>
<path d="M82.6904 537.685L218.111 588.21L336.754 700.959L502.734 677.026H809.527L959.928 700.959V856.786L547.075 780.202H394.877L252.266 745.633L177.964 660.007L110.254 641.925L156.992 764.779L94.6745 730.741L28.1626 599.91L82.6904 537.685Z" fill="#BBD5D0"/>
<path d="M0 43.0787L11.9841 137.213L36.5516 0L43.742 16.4869L31.1587 302.614L63.5159 248.899L31.1587 332.929L19.7738 588.742L0 566.404V43.0787Z" fill="#7B5F57"/>
<path d="M70.7062 12.2322L87.484 188.801L118.043 18.0824L127.032 44.6741L109.055 248.367L146.805 158.487L109.055 299.423V540.345L87.484 518.007L47.3372 561.086L59.9205 407.918L47.3372 344.097L70.7062 382.389V12.2322Z" fill="#675752"/>
<path d="M146.805 265.386L166.28 157.157L138.117 71.266L170.774 132.959L185.754 48.929L178.563 304.476L237.286 206.884L178.563 354.734L171.373 565.341L113.849 544.068L138.117 314.049L86.8848 93.6031L146.805 265.386Z" fill="#7A5F57"/>
<path d="M185.155 530.771L406.262 577.041L810.127 661.603H506.329L344.544 675.962L255.861 592.996L185.155 561.618V530.771Z" fill="#D2DCD0"/>
<path d="M243.393 424.936L237.885 404.195L247.827 396.228L243.393 424.936Z" fill="white"/>
<path d="M193.544 508.434L959.928 661.071V697.768L829.901 670.644L816.119 651.498L184.556 520.135L193.544 508.434Z" fill="#D1CC9E"/>
<path d="M233.69 403.663L327.167 346.756L431.428 342.502L560.258 379.198L665.119 439.828L814.92 540.344L920.381 618.524V647.775L787.357 618.524L737.623 568.532L644.147 487.693L550.671 427.595L426.036 384.517L313.984 391.962L250.468 427.595L213.317 475.461L178.563 519.603V475.461L233.69 403.663Z" fill="#D1CC9E"/>
<path d="M384.69 340.906L479.964 330.27L576.436 340.906L670.512 378.667L818.516 464.292L959.928 562.682V656.816L945.547 570.127L833.496 495.67L683.694 397.813L576.436 353.138L471.575 336.652L384.69 340.906Z" fill="#D1CC9E"/>
<path d="M244.476 440.891L252.865 427.595L257.659 424.936L251.067 517.475L237.286 515.348L244.476 440.891Z" fill="#D1CC9E"/>
<path d="M304.397 399.94L314.583 394.09H320.575L310.988 529.176L295.409 525.985L304.397 399.94Z" fill="#D1CC9E"/>
<path d="M410.456 388.771L425.436 386.644L431.428 388.771L420.643 549.386L391.881 544.599L410.456 388.771Z" fill="#D1CC9E"/>
<path d="M517.115 421.745L536.889 427.064L544.678 431.85L536.889 573.318L503.333 566.404L517.115 421.745Z" fill="#D1CC9E"/>
<path d="M627.369 483.97L639.952 490.884L662.722 510.562V596.187L615.984 587.146L627.369 483.97Z" fill="#D1CC9E"/>
<path d="M327.167 383.985L313.243 386.12L328.682 357.057L327.167 383.985Z" fill="white"/>
<path d="M290.583 398.968L279.829 405.258L283.195 382.597L290.583 398.968Z" fill="white"/>
<path d="M257.742 415.987L246.988 422.277L250.354 399.615L257.742 415.987Z" fill="white"/>
<path d="M228.897 444.614L222.576 453.638L218.111 429.191L228.897 444.614Z" fill="white"/>
<path d="M202.423 480.285L196.457 489.497L191.043 465.202L202.423 480.285Z" fill="white"/>
<path d="M309.19 386.112L303.797 370.157L327.61 350.92L309.19 386.112Z" fill="white"/>
<path d="M276.234 407.917L269.044 388.771L280.668 379.209L276.234 407.917Z" fill="white"/>
<path d="M219.309 458.442L207.325 440.891L215.141 430.255L219.309 458.442Z" fill="white"/>
<path d="M193.544 494.075L181.559 476.524L187.96 468.547L193.544 494.075Z" fill="white"/>
<path d="M337.353 351.011L358.325 349.947L355.329 383.453L337.353 351.011Z" fill="white"/>
<path d="M286.487 376.901L298.623 371.183L305.595 388.24L286.487 376.901Z" fill="white"/>
<path d="M253.646 397.11L265.783 391.392L272.754 408.449L253.646 397.11Z" fill="white"/>
<path d="M221.706 422.812L234.29 410.045L238.782 430.85L221.706 422.812Z" fill="white"/>
<path d="M194.388 458.716L206.466 445.57L216.314 460.569L194.388 458.716Z" fill="white"/>
<path d="M180.361 508.966L180.095 480.702L189.942 495.701L180.361 508.966Z" fill="white"/>
<path d="M367.882 382.542L388.854 383.559L385.858 351.519L367.882 382.542Z" fill="white"/>
<path d="M397.842 349.694L426.036 347.288L416.448 382.39L397.842 349.694Z" fill="white"/>
<path d="M458.052 357.546L433.226 349.416L429.631 380.262L458.052 357.546Z" fill="white"/>
<path d="M480.509 396.415L455.447 388.806L474.846 362.719L480.509 396.415Z" fill="white"/>
<path d="M524.347 378.948L501.692 372.005L495.134 397.275L524.347 378.948Z" fill="white"/>
<path d="M596.809 409.513L567.448 393.558L562.245 427.058L596.809 409.513Z" fill="white"/>
<path d="M692.25 466.424L665.124 447.609L640.551 473.333L692.25 466.424Z" fill="white"/>
<path d="M782.642 536.99L752.923 514.167L723.256 542.252L782.642 536.99Z" fill="white"/>
<path d="M874.92 612.511L845.201 589.688L815.534 617.773L874.92 612.511Z" fill="white"/>
<path d="M613.47 420.795L651.173 444.594L631.545 466.08L613.47 420.795Z" fill="white"/>
<path d="M707.358 479.315L741.767 506.765L719.513 526.13L707.358 479.315Z" fill="white"/>
<path d="M799.038 552.451L836.506 585.488L809.891 606.441L799.038 552.451Z" fill="white"/>
<path d="M553.067 420.682L534.865 414.085L535.729 385.351L553.067 420.682Z" fill="white"/>
<path d="M351.061 383.22L332.519 384.934L332.519 351.011L351.061 383.22Z" fill="white"/>
<path d="M304.397 389.835L293.012 397.281L283.613 378.073L304.397 389.835Z" fill="white"/>
<path d="M271.556 410.045L260.171 417.491L250.773 398.283L271.556 410.045Z" fill="white"/>
<path d="M238.287 432.572L231.663 441.488L219.858 424.38L238.287 432.572Z" fill="white"/>
<path d="M215.115 463.76L205.065 477.076L192.601 460.34L215.115 463.76Z" fill="white"/>
<path d="M381.59 351.742L363.047 350.103L363.047 382.542L381.59 351.742Z" fill="white"/>
<path d="M411.55 381.903L393.008 383.618L393.008 349.694L411.55 381.903Z" fill="white"/>
<path d="M433.825 381.326L450.004 387.176L463.786 361.116L433.825 381.326Z" fill="white"/>
<path d="M478.857 364.247L495.586 368.775L487.514 396.852L478.857 364.247Z" fill="white"/>
<path d="M499.277 399.428L526.339 409.75L529.082 382.04L499.277 399.428Z" fill="white"/>
<path d="M566.388 429.211L590.218 445.146L601.004 411.64L566.388 429.211Z" fill="white"/>
<path d="M652.535 478.652L672.309 493.543L696.145 468.961L652.535 478.652Z" fill="white"/>
<path d="M736.578 548.922L758.166 566.9L786.92 540.08L736.578 548.922Z" fill="white"/>
<path d="M828.856 624.442L879.197 633.416L879.198 615.6L828.856 624.442Z" fill="white"/>
<path d="M626.296 462.675L593.533 444.779L608.194 417.323L626.296 462.675Z" fill="white"/>
<path d="M711.258 529.708L684.477 501.13L702.56 475.333L711.258 529.708Z" fill="white"/>
<path d="M800.249 610.102L771.551 576.166L793.825 547.668L800.249 610.102Z" fill="white"/>
<path d="M538.997 383.38L556.663 387.176L556.663 419.086L538.997 383.38Z" fill="white"/>
<path d="M437.421 342.502L471.575 337.11L483.56 339.311L448.806 345.693L437.421 342.502Z" fill="#D1CC9E"/>
<path d="M561.456 351.543L573.44 353.138L587.222 359.52L554.266 376.539L547.075 373.348L531.496 368.562L561.456 351.543Z" fill="#D1CC9E"/>
<path d="M655.532 430.931L693.282 405.258L704.067 411.64L715.452 421.213L678.901 446.355L668.714 438.377L655.532 430.931Z" fill="#D1CC9E"/>
<path d="M780.167 515.348L814.92 486.097L825.706 491.416L836.492 499.925L801.139 529.176L790.952 521.198L780.167 515.348Z" fill="#D1CC9E"/>
<path d="M875.44 583.476L919.182 555.768L929.968 561.086L939.555 569.117L894.016 596.719L886.226 589.273L875.44 583.476Z" fill="#D1CC9E"/>
<path d="M0 584.487L71.3055 750.419L157.591 819.026L312.186 866.359L148.004 853.064L0 750.419V584.487Z" fill="#9FCABF"/>
</svg>
