<?xml version="1.0" standalone="no"?>
<!DOCTYPE svg PUBLIC "-//W3C//DTD SVG 20010904//EN"
 "http://www.w3.org/TR/2001/REC-SVG-20010904/DTD/svg10.dtd">
<svg version="1.0" xmlns="http://www.w3.org/2000/svg"
 width="388.000000pt" height="388.000000pt" viewBox="0 0 388.000000 388.000000"
 preserveAspectRatio="xMidYMid meet">
<metadata>
Created by potrace 1.14, written by Peter Selinger 2001-2017
</metadata>
<g transform="translate(0.000000,388.000000) scale(0.100000,-0.100000)"
fill="#000000" stroke="none">
<path d="M37 2953 c-8 -13 -4 -1273 4 -1317 4 -22 10 -61 14 -86 21 -138 102
-295 210 -404 162 -164 367 -237 650 -232 156 3 245 20 365 69 275 112 440
327 490 640 8 54 14 741 10 1290 l0 47 -280 0 c-154 0 -280 -3 -281 -7 -1 -5
-2 -289 -4 -633 -1 -344 -5 -638 -9 -654 -13 -53 -55 -124 -96 -159 -59 -50
-133 -71 -231 -64 -161 10 -255 94 -277 247 -3 25 -6 321 -7 657 l0 613 -277
0 c-152 0 -279 -3 -281 -7z"/>
<path d="M2090 1945 l0 -1015 283 2 282 3 0 405 1 405 344 0 345 0 0 -408 0
-407 267 0 268 0 0 1015 0 1015 -268 0 -267 0 0 -380 c0 -332 -2 -380 -15
-381 -81 -5 -662 0 -667 5 -4 4 -7 174 -8 379 l0 372 -282 3 -283 2 0 -1015z"/>
</g>
</svg>
